<svg xmlns="http://www.w3.org/2000/svg" viewBox="0 0 260 260"><defs><style>.cls-1{isolation:isolate;}.cls-2{fill:#fff;}.cls-3,.cls-7{fill:none;}.cls-3,.cls-7,.cls-8{stroke:#004375;}.cls-3,.cls-4,.cls-5,.cls-7,.cls-8{stroke-linecap:round;stroke-linejoin:round;}.cls-3,.cls-4,.cls-8{stroke-width:4px;}.cls-4{fill:#ff7900;stroke:#7f3900;}.cls-5{fill:#cce2f5;stroke:#7f6325;stroke-width:3px;}.cls-6{fill:#007ded;opacity:0.3;mix-blend-mode:multiply;}.cls-7{stroke-width:6px;}.cls-8{fill:#72afdf;}</style></defs><title>Design Review and Repair</title><g class="cls-1"><g id="Layer_1" data-name="Layer 1"><rect class="cls-2" x="39" y="79" width="170" height="102"/><line class="cls-3" x1="235" y1="65" x2="255" y2="45"/><line class="cls-3" x1="25" y1="65" x2="5" y2="45"/><line class="cls-3" x1="25" y1="195" x2="5" y2="215"/><line class="cls-3" x1="235" y1="195" x2="255" y2="215"/><line class="cls-3" x1="5" y1="172.5" x2="25" y2="164"/><line class="cls-3" x1="5" y1="87.5" x2="25" y2="96"/><line class="cls-3" x1="5" y1="130" x2="25" y2="130"/><line class="cls-3" x1="255" y1="172.5" x2="235" y2="164"/><line class="cls-3" x1="255" y1="87.5" x2="235" y2="96"/><line class="cls-3" x1="255" y1="130" x2="235" y2="130"/><line class="cls-3" x1="49.64" y1="215" x2="58.57" y2="195"/><line class="cls-3" x1="88.33" y1="215" x2="94.29" y2="195"/><line class="cls-3" x1="210.36" y1="215" x2="201.43" y2="195"/><line class="cls-3" x1="171.67" y1="215" x2="165.71" y2="195"/><line class="cls-3" x1="130" y1="195" x2="130" y2="215"/><line class="cls-3" x1="210.36" y1="45" x2="201.43" y2="65"/><line class="cls-3" x1="171.67" y1="45" x2="165.71" y2="65"/><line class="cls-3" x1="49.64" y1="45" x2="58.57" y2="65"/><line class="cls-3" x1="88.33" y1="45" x2="94.29" y2="65"/><line class="cls-3" x1="130" y1="65" x2="130" y2="45"/><circle class="cls-4" cx="73" cy="113" r="17"/><polygon class="cls-5" points="56 181 124 113 158 147 183.5 121.5 209 147 209 181 56 181"/><polygon class="cls-6" points="183.5 121.5 183.5 181 209 181 209 147 183.5 121.5"/><polygon class="cls-6" points="124 113 124 181 158 147 124 113"/><polygon class="cls-3" points="56 181 124 113 158 147 183.5 121.5 209 147 209 181 56 181"/><rect class="cls-7" x="39" y="79" width="170" height="102"/><polyline class="cls-3" points="105.94 131.06 115.31 140.44 126.81 128.94 131.81 133.94 138.38 127.38"/><polyline class="cls-3" points="170.69 134.31 175.5 139.13 180 134.63 191.31 145.94 199.63 137.63"/><polygon class="cls-8" points="103 151 96.29 167 109.63 167 103 151"/><line class="cls-3" x1="102.96" y1="167" x2="102.96" y2="172.75"/><polygon class="cls-8" points="120.55 144.25 113.83 160.25 127.17 160.25 120.55 144.25"/><line class="cls-3" x1="120.5" y1="160.25" x2="120.5" y2="166"/></g></g></svg>
