<?xml version="1.0" encoding="utf-8"?>
<!-- Generator: Adobe Illustrator 22.0.0, SVG Export Plug-In . SVG Version: 6.00 Build 0)  -->
<svg version="1.1" id="Layer_1" xmlns="http://www.w3.org/2000/svg" xmlns:xlink="http://www.w3.org/1999/xlink" x="0px" y="0px"
	 viewBox="0 0 240 240" style="enable-background:new 0 0 240 240;" xml:space="preserve">
<style type="text/css">
	.st0{fill:#FFFFFF;}
	.st1{fill:none;stroke:#004375;stroke-width:6;stroke-linecap:round;stroke-linejoin:round;}
	.st2{fill:none;}
	.st3{opacity:0.3;fill:#007DED;enable-background:new    ;}
	.st4{fill:#FF7900;stroke:#7F3900;stroke-width:4;stroke-linecap:round;stroke-linejoin:round;}
</style>
<title>Better Pricing</title>
<g>
	<g id="Layer_1_1_">
		<path class="st0" d="M64.4,20L20,64.4v44.4L131.1,220l88.9-88.9L108.9,20H64.4z M75.6,75.6c-6.1,6.1-16.1,6.1-22.2,0
			c-6.1-6.1-6.1-16.1,0-22.2s16.1-6.1,22.2,0c0,0,0,0,0,0C81.7,59.5,81.7,69.4,75.6,75.6z"/>
		<path class="st1" d="M64.4,20L20,64.4v44.4L131.1,220l88.9-88.9L108.9,20H64.4z M75.6,75.6c-6.1,6.1-16.1,6.1-22.2,0
			c-6.1-6.1-6.1-16.1,0-22.2s16.1-6.1,22.2,0c0,0,0,0,0,0C81.7,59.5,81.7,69.4,75.6,75.6z"/>
		<polyline class="st2" points="108.9,220 197.8,131.1 86.7,20 		"/>
		<polygon class="st3" points="220,131.1 131.1,220 120,208.9 197.8,131.1 86.7,20 108.9,20 		"/>
		<path class="st1" d="M64.4,20L20,64.4v44.4L131.1,220l88.9-88.9L108.9,20H64.4z M75.6,75.6c-6.1,6.1-16.1,6.1-22.2,0
			c-6.1-6.1-6.1-16.1,0-22.2s16.1-6.1,22.2,0c0,0,0,0,0,0C81.7,59.5,81.7,69.4,75.6,75.6z"/>
		<path class="st4" d="M159.7,151.9l4.5,4.5c2.3,2.3,2.3,6.1,0,8.4c-2.3,2.3-6.1,2.3-8.4,0l0,0l-4.4-4.4
			c-6.3,5.6-14.1,9.4-22.4,10.9c-2.7,0.5-5.6-0.4-7.5-2.4c-3.2-3.2-3.2-8.3,0-11.5c1.2-1.2,2.7-2,4.4-2.3c5.2-0.8,10.1-2.9,14.4-5.9
			l-13.8-13.8c-11.3,6.9-24.7,13.2-36.6,1.3c-9-9-9.4-23.7,1.2-36.7l-4.7-4.7C84,93,84,89.3,86.3,87c2.3-2.3,6.1-2.3,8.4,0l0,0
			l4.9,4.9c5.1-4.2,11.2-7.3,17.6-8.8c4.4-1.2,8.9,1.4,10.1,5.8c0.8,2.8,0,5.9-2.1,8c-1.1,1.1-2.4,1.8-3.9,2.1
			c-3.7,0.8-7.2,2.2-10.4,4.2l12.3,12.3c11.6-6.8,25.2-13.4,37.2-1.4C170.1,123.7,171.3,137.6,159.7,151.9z M113.7,121.1l-11.2-11.2
			c-4.1,4.9-4.1,9.6-1,12.8C104.3,125.5,108.6,124.1,113.7,121.1z M149,128.2c-3.3-3.3-7.8-1.7-13.3,1.3l12.3,12.3
			C152.4,136.1,151.9,131.1,149,128.2L149,128.2z"/>
	</g>
</g>
</svg>
