<svg xmlns="http://www.w3.org/2000/svg" viewBox="0 0 260 260"><defs><style>.cls-1{isolation:isolate;}.cls-2{fill:#fff;}.cls-11,.cls-12,.cls-3,.cls-4,.cls-5,.cls-6,.cls-7,.cls-9{fill:none;}.cls-10,.cls-12,.cls-3,.cls-4,.cls-5,.cls-6,.cls-7,.cls-9{stroke:#004375;}.cls-10,.cls-11,.cls-12,.cls-3,.cls-4,.cls-5,.cls-6,.cls-7,.cls-9{stroke-linecap:round;stroke-linejoin:round;}.cls-11,.cls-12,.cls-3,.cls-4,.cls-5,.cls-6,.cls-7{stroke-width:4px;}.cls-4{stroke-dasharray:7 7;}.cls-5{stroke-dasharray:4.74 4.74;}.cls-6{stroke-dasharray:4.74 4.74;}.cls-7{stroke-dasharray:6.84 6.84;}.cls-10,.cls-8{fill:#007ded;}.cls-8{opacity:0.3;mix-blend-mode:multiply;}.cls-10,.cls-9{stroke-width:6px;}.cls-11{stroke:#ff7900;}.cls-12{stroke-dasharray:6.95 6.95;}</style></defs><title>Satisfaction Guaranteed</title><g class="cls-1"><g id="Layer_1" data-name="Layer 1"><polygon class="cls-2" points="127.97 167.13 94.81 247.19 80.59 212.89 46.29 227.09 79.45 147.03 94.37 146.17 100.7 164.36 118.04 155.97 127.97 167.13"/><line class="cls-3" x1="137.67" y1="114.33" x2="136.33" y2="117.57"/><line class="cls-4" x1="133.65" y1="124.03" x2="97.49" y2="211.33"/><polyline class="cls-3" points="96.15 214.56 94.81 217.8 93.47 214.56"/><polyline class="cls-5" points="91.65 210.18 90.99 208.58 88.93 203.61"/><polyline class="cls-3" points="88.02 201.42 86.68 198.19 83.45 199.53"/><polyline class="cls-6" points="79.07 201.34 76.29 202.49 72.5 204.06"/><polyline class="cls-3" points="70.31 204.97 67.08 206.31 68.42 203.07"/><line class="cls-7" x1="71.04" y1="196.75" x2="106.38" y2="111.39"/><line class="cls-3" x1="107.69" y1="108.23" x2="109.03" y2="105"/><path class="cls-8" d="M124.91,174.51l-5.69,13.75L117,185.7l-3.85-4.3-9.31,4.52-10.16,4.91A3.35,3.35,0,0,1,89,188.91l-3.7-10.66-3.4-9.78-5.74.34-4.57.26-1.33.09L76,155.4l9.72-.56,5.54-.33L98,173.85l18.42-8.91,3.68,4.13Z"/><polygon class="cls-9" points="127.97 167.13 94.81 247.19 80.59 212.89 46.29 227.09 79.45 147.03 94.37 146.17 100.7 164.36 118.04 155.97 127.97 167.13"/><polygon class="cls-2" points="131.51 167.13 164.67 247.19 178.89 212.89 213.19 227.09 180.03 147.03 165.11 146.17 158.78 164.36 141.44 155.97 131.51 167.13"/><line class="cls-3" x1="150.45" y1="105" x2="151.79" y2="108.23"/><line class="cls-7" x1="154.41" y1="114.55" x2="189.76" y2="199.91"/><polyline class="cls-3" points="191.07 203.07 192.41 206.31 189.17 204.97"/><polyline class="cls-6" points="184.79 203.16 183.19 202.49 178.22 200.44"/><polyline class="cls-3" points="176.03 199.53 172.8 198.19 171.46 201.42"/><polyline class="cls-5" points="169.65 205.8 168.49 208.58 166.92 212.37"/><polyline class="cls-3" points="166.01 214.56 164.68 217.8 163.34 214.56"/><line class="cls-4" x1="160.66" y1="208.1" x2="124.5" y2="120.8"/><line class="cls-3" x1="123.16" y1="117.57" x2="121.82" y2="114.33"/><path class="cls-8" d="M134.57,174.51l5.69,13.75,2.26-2.56,3.85-4.3,9.31,4.52,10.16,4.91a3.35,3.35,0,0,0,4.62-1.92l3.7-10.66,3.4-9.78,5.75.34,4.57.26,1.32.09-5.69-13.76-9.73-.56-5.54-.33-6.73,19.34-18.42-8.91-3.68,4.13Z"/><polygon class="cls-9" points="131.51 167.13 164.67 247.19 178.89 212.89 213.19 227.09 180.03 147.03 165.11 146.17 158.78 164.36 141.44 155.97 131.51 167.13"/><polygon class="cls-10" points="207.34 128.55 188 135.27 189.19 155.71 184.6 155.44 174.29 154.84 174.28 154.84 168.75 154.52 162.03 173.85 143.61 164.93 139.92 169.08 139.91 169.08 133.05 176.8 130 180.22 126.95 176.79 120.08 169.08 120.08 169.07 116.39 164.93 97.97 173.85 91.24 154.52 85.71 154.84 85.7 154.84 75.39 155.44 70.81 155.71 72 135.27 52.66 128.55 61.58 110.13 46.29 96.52 61.58 82.91 52.66 64.49 72 57.77 70.81 37.33 91.24 38.52 97.97 19.18 116.39 28.1 130 12.81 143.61 28.1 162.03 19.18 168.75 38.52 189.19 37.33 188 57.77 207.34 64.49 198.42 82.91 213.71 96.52 198.42 110.13 207.34 128.55"/><circle class="cls-2" cx="130.84" cy="96.61" r="61.27"/><polyline class="cls-11" points="94.09 87.46 102.07 79.48 102.07 111.4"/><ellipse class="cls-11" cx="117.23" cy="95.44" rx="7.98" ry="15.96"/><ellipse class="cls-11" cx="138.78" cy="95.44" rx="7.98" ry="15.96"/><circle class="cls-11" cx="155.53" cy="83.47" r="3.99"/><circle class="cls-11" cx="163.51" cy="107.41" r="3.99"/><line class="cls-11" x1="151.54" y1="111.4" x2="167.5" y2="79.48"/><circle class="cls-12" cx="130.84" cy="96.61" r="48.7" transform="translate(-1.37 1.88) rotate(-0.82)"/><circle class="cls-3" cx="130.84" cy="96.61" r="61.27"/></g></g></svg>
